#!OML:ASF Y:\EmotionMaleHayes\Project 1\Capture day 1\Session 1\Male1.ASF
:FULLY-SPECIFIED
:DEGREES
81
root -26.86 16.759 1.15737 21.6101 80.8246 12.9807
lowerback 12.4465 2.03459 -3.48298
upperback 2.16561 2.30831 0.0442434
thorax -4.83628 1.22222 1.62736
lowerneck -29.0326 4.38352 5.65311
upperneck 23.9439 5.43251 -5.44864
head 13.1643 2.14544 -2.00587
rclavicle -9.44227e-015 -1.8487e-014
rhumerus -52.105 22.687 -95.3846
rradius 54.495
rwrist -19.316
rhand -15.5128 -34.3959
rfingers 7.12502
rthumb 10.6702 -64.1049
lclavicle -9.44227e-015 -1.8487e-014
lhumerus -47.9847 -24.7451 95.1623
lradius 73.7362
lwrist 20.9716
lhand -30.3429 -26.2542
lfingers 7.12502
lthumb -3.6486 3.69436
rfemur 3.36862 -5.26472 13.6158
rtibia 11.9044
rfoot -28.6482 -5.27552
rtoes -4.07678
lfemur -4.77529 5.03227 -19.1117
ltibia 31.0688
lfoot -25.5462 11.1017
ltoes -3.49172
82
root -26.7953 16.7238 1.14795 17.9254 81.1068 9.28932
lowerback 12.9419 2.05284 -2.46253
upperback 2.51694 2.47511 0.162328
thorax -4.71202 1.28993 1.13962
lowerneck -28.833 4.30155 5.62844
upperneck 23.2553 5.29646 -5.47367
head 12.8377 2.08389 -2.03303
rclavicle 1.15295e-014 -2.78299e-015
rhumerus -51.7362 22.5113 -95.4212
rradius 54.2796
rwrist -19.3076
rhand -16.4217 -34.9046
rfingers 7.12502
rthumb 9.79335 -64.6569
lclavicle 1.15295e-014 -2.78299e-015
lhumerus -48.2344 -24.2853 95.4261
lradius 73.4858
lwrist 21.728
lhand -29.9758 -26.384
lfingers 7.12502
lthumb -3.29405 3.57025
rfemur 3.40395 -5.35713 14.3314
rtibia 12.4598
rfoot -29.0248 -5.35484
rtoes -4.18434
lfemur -6.67764 5.57973 -18.4607
ltibia 34.92
lfoot -25.083 10.8768
ltoes -2.5486
83
root -26.7354 16.6827 1.14142 13.6698 81.5086 4.94262
lowerback 13.3496 2.00851 -1.33797
upperback 2.87466 2.58352 0.26811
thorax -4.52056 1.33189 0.59265
lowerneck -28.421 4.23992 5.6944
upperneck 22.2965 5.13598 -5.46347
head 12.3692 2.02881 -2.06419
rclavicle -1.80894e-014 -1.74931e-014
rhumerus -51.1713 22.387 -95.5342
rradius 54.1018
rwrist -19.4174
rhand -17.3627 -35.5002
rfingers 7.12502
rthumb 8.88536 -65.2931
lclavicle -1.80894e-014 -1.74931e-014
lhumerus -48.5387 -24.0028 95.7877
lradius 72.7875
lwrist 21.237
lhand -31.1573 -27.1637
lfingers 7.12502
lthumb -4.43507 2.76986
rfemur 3.42588 -5.35488 15.2352
rtibia 12.8688
rfoot -29.4289 -5.66343
rtoes -4.60056
lfemur -8.65922 5.89 -17.755
ltibia 38.4783
lfoot -24.7133 10.6399
ltoes -0.792134
84
root -26.6708 16.6394 1.13063 7.81816 81.8702 -0.985334
lowerback 13.6642 1.99995 -0.19403
upperback 3.30717 2.7618 0.575661
thorax -4.20477 1.41564 0.238417
lowerneck -28.1373 4.08475 5.62367
upperneck 21.4265 4.94953 -5.60187
head 11.9672 1.9274 -2.13402
rclavicle -1.88845e-014 -7.55382e-015
rhumerus -50.4326 22.3598 -95.3519
rradius 53.947
rwrist -19.4315
rhand -18.2862 -35.9405
rfingers 7.12502
rthumb 7.99407 -65.7693
lclavicle -1.88845e-014 -7.55382e-015
lhumerus -48.5794 -23.4424 96.2696
lradius 71.986
lwrist 21.0669
lhand -31.9613 -27.5024
lfingers 7.12502
lthumb -5.21137 2.41352
rfemur 3.57975 -5.51763 16.2563
rtibia 13.0879
rfoot -29.659 -6.01987
rtoes -6.28669
lfemur -10.6116 6.24431 -16.8998
ltibia 41.8308
lfoot -23.6387 9.75581
ltoes 3.5532
85
root -26.6021 16.5929 1.12173 0.580391 82.123 -8.33906
lowerback 14.1042 2.01734 1.05459
upperback 3.64121 2.99764 0.949193
thorax -4.05254 1.53197 -0.122745
lowerneck -27.9824 3.8584 5.31071
upperneck 20.6811 4.71871 -5.57295
head 11.628 1.80684 -2.10803
rclavicle -2.84262e-014 -1.98785e-014
rhumerus -49.5435 22.2492 -95.1232
rradius 53.4826
rwrist -19.4023
rhand -19.2055 -36.1289
rfingers 7.12502
rthumb 7.10674 -65.9896
lclavicle -2.84262e-014 -1.98785e-014
lhumerus -48.6457 -22.6185 96.7348
lradius 71.1974
lwrist 21.6682
lhand -31.7671 -27.3622
lfingers 7.12502
lthumb -5.02386 2.55822
rfemur 3.79815 -5.85788 17.3567
rtibia 13.1233
rfoot -29.8356 -5.99692
rtoes -7.09755
lfemur -12.7545 6.78863 -15.8994
ltibia 45.2667
lfoot -23.2292 8.97492
ltoes 1.72513
86
root -26.5278 16.5461 1.11826 -5.49243 82.1897 -14.4622
lowerback 14.1713 2.0071 2.08364
upperback 4.21607 3.16028 1.21861
thorax -3.44419 1.62869 -0.434423
lowerneck -27.5626 3.73079 5.14121
upperneck 19.4946 4.58043 -5.63545
head 11.0933 1.73513 -2.11942
rclavicle 2.78299e-014 1.03368e-014
rhumerus -48.2268 22.3736 -94.9606
rradius 53.0891
rwrist -19.6562
rhand -19.9906 -36.4404
rfingers 7.12502
rthumb 6.34891 -66.3252
lclavicle 2.78299e-014 1.03368e-014
lhumerus -48.4313 -21.7465 97.0483
lradius 69.9979
lwrist 21.2335
lhand -32.6381 -26.9445
lfingers 7.12502
lthumb -5.86482 2.95436
rfemur 4.12121 -6.14693 18.206
rtibia 13.1205
rfoot -30.1269 -5.79537
rtoes -7.56774
lfemur -14.7857 7.48768 -15.1199
ltibia 48.5067
lfoot -23.3949 7.76986
ltoes -0.32034
87
root -26.4489 16.5015 1.11657 -11.6556 82.1886 -20.5914
lowerback 14.9999 2.10399 2.86948
upperback 4.3281 3.46371 1.62998
thorax -3.74638 1.7794 -0.530642
lowerneck -27.0003 3.45426 4.86099
upperneck 18.7519 4.32387 -5.73607
head 10.6997 1.59916 -2.15082
rclavicle 1.76918e-014 -3.65764e-014
rhumerus -47.8182 22.2148 -94.8062
rradius 53.2559
rwrist -19.8483
rhand -20.4627 -36.9302
rfingers 7.12502
rthumb 5.89314 -66.8282
lclavicle 1.76918e-014 -3.65764e-014
lhumerus -48.7551 -20.681 97.5844
lradius 68.9261
lwrist 21.9665
lhand -32.2353 -26.5317
lfingers 7.12502
lthumb -5.47592 3.37757
rfemur 4.58328 -6.33285 19.0737
rtibia 13.0988
rfoot -30.3778 -5.79963
rtoes -7.88731
lfemur -16.7028 8.27076 -14.3205
ltibia 51.1522
lfoot -23.1355 6.75292
ltoes -2.83032
88
root -26.3676 16.4555 1.11638 -19.8659 82.2287 -28.8538
lowerback 15.437 2.05943 4.14004
upperback 4.66106 3.64634 1.91838
thorax -3.56384 1.88486 -0.98228
lowerneck -26.7621 3.1554 4.59318
upperneck 17.9584 3.93651 -5.55051
head 10.334 1.43513 -2.09875
rclavicle 8.34896e-015 -3.57812e-015
rhumerus -46.781 21.8443 -94.682
rradius 53.393
rwrist -19.9241
rhand -20.6509 -36.885
rfingers 7.12502
rthumb 5.71137 -66.7881
lclavicle 8.34896e-015 -3.57812e-015
lhumerus -48.6709 -19.9986 97.8241
lradius 67.5723
lwrist 21.9741
lhand -32.9363 -26.133
lfingers 7.12502
lthumb -6.15267 3.75767
rfemur 5.15543 -6.57004 20.2429
rtibia 12.7709
rfoot -30.4892 -5.75482
rtoes -6.73861
lfemur -19.0324 8.98683 -13.3408
ltibia 54.1217
lfoot -23.0599 6.15732
ltoes -5.98295
89
root -26.2849 16.4097 1.11891 -28.6264 82.2527 -37.7103
lowerback 15.5681 1.95805 5.37936
upperback 5.1353 3.73889 2.24748
thorax -3.06939 1.96484 -1.33646
lowerneck -26.6105 2.89694 4.44072
upperneck 17.025 3.58957 -5.50728
head 9.94689 1.27922 -2.10759
rclavicle 1.07344e-014 2.38542e-015
rhumerus -45.3567 21.5706 -94.4392
rradius 53.4539
rwrist -20.1359
rhand -20.7521 -36.2448
rfingers 7.12502
rthumb 5.61368 -66.1504
lclavicle 1.07344e-014 2.38542e-015
lhumerus -48.2285 -19.0856 97.868
lradius 65.9245
lwrist 21.9786
lhand -33.2373 -26.0494
lfingers 7.12502
lthumb -6.44326 3.8326
rfemur 5.79971 -7.12185 21.3222
rtibia 12.2573
rfoot -30.5329 -5.59399
rtoes -6.17476
lfemur -21.573 9.32405 -12.4005
ltibia 57.1227
lfoot -23.4033 5.25778
ltoes -4.16866
